<svg xmlns='http://www.w3.org/2000/svg' xmlns:xlink='http://www.w3.org/1999/xlink'
  viewBox="0 0 71.49600000000001 58.24800000000001">
  <path transform="translate(0 51.98400000000001)" fill="LightSkyBlue"
    d="M3.31 6.26Q0 4.54 0 1.80L0 1.80Q0-0.94 2.88-6.66Q5.76-12.38 10.58-19.80L10.58-19.80Q6.26-20.09 0-20.09L0-20.09Q1.73-24.77 8.35-24.77L8.35-24.77Q9.79-24.77 13.68-24.34L13.68-24.34Q21.74-36.00 28.73-43.99Q35.71-51.98 38.02-51.98L38.02-51.98Q39.89-51.98 42.91-49.18L42.91-49.18Q41.47-48.10 38.70-40.21Q35.93-32.33 33.80-22.93Q31.68-13.54 31.68-7.78L31.68-7.78Q31.68-4.90 32.29-3.49Q32.90-2.09 34.20-2.09L34.20-2.09Q36.00-2.09 38.45-4.72Q40.90-7.34 43.78-12.82L43.78-12.82L45.07-11.45Q42.77-5.33 39.17-1.62Q35.57 2.09 31.68 2.09L31.68 2.09Q28.37 2.09 26.86-0.79Q25.34-3.67 25.34-9.07L25.34-9.07Q25.34-12.60 26.28-18.00L26.28-18.00Q22.61-18.58 15.98-19.37L15.98-19.37Q9.29-7.49 3.31 6.26L3.31 6.26ZM27.00-21.53Q28.30-27.58 30.38-34.06Q32.47-40.54 34.63-45.65L34.63-45.65Q31.46-43.13 27.22-37.30Q22.97-31.46 18.29-23.47L18.29-23.47L23.69-22.32Q25.85-21.74 27.00-21.53L27.00-21.53ZM51.62 2.16Q48.46 2.16 47.02 0.07Q45.58-2.02 45.58-5.47L45.58-5.47Q45.58-12.10 50.08-23.18Q54.58-34.27 60.19-43.06Q65.81-51.84 68.47-51.84L68.47-51.84Q69.70-51.84 70.56-49.93Q71.42-48.02 71.50-46.08L71.50-46.08Q71.50-42.77 68.83-36.40Q66.17-30.02 61.67-23.47Q57.17-16.92 52.06-12.89L52.06-12.89Q51.26-8.42 51.26-6.12L51.26-6.12Q51.26-3.60 52.09-2.38Q52.92-1.15 54.36-1.15L54.36-1.15Q56.88-1.15 59.72-4.50Q62.57-7.85 64.80-12.60L64.80-12.60L66.53-11.66Q63.36-5.11 59.54-1.48Q55.73 2.16 51.62 2.16L51.62 2.16ZM53.35-17.35Q57.24-21.53 60.66-27.14Q64.08-32.76 66.13-37.80Q68.18-42.84 68.18-45.29L68.18-45.29Q67.25-45.29 64.40-40.90Q61.56-36.50 58.43-29.99Q55.30-23.47 53.35-17.35L53.35-17.35Z" />
</svg>